HIERARCHY
ROOT hip
{
  OFFSET 0 0 0
  CHANNELS 6 Xposition Yposition Zposition Zrotation Yrotation Xrotation
  JOINT abdomen
  {
    OFFSET 0 20.6881 -0.73152
    CHANNELS 3 Zrotation Xrotation Yrotation
    JOINT chest
    {
      OFFSET 0 11.7043 -0.48768
      CHANNELS 3 Zrotation Xrotation Yrotation
      JOINT neck
      {
        OFFSET 0 22.1894 -2.19456
        CHANNELS 3 Zrotation Xrotation Yrotation
        JOINT head
        {
          OFFSET -0.24384 7.07133 1.2192
          CHANNELS 3 Zrotation Xrotation Yrotation
          JOINT leftEye
          {
            OFFSET 4.14528 8.04674 8.04672
            CHANNELS 3 Zrotation Xrotation Yrotation
            End Site
            {
              OFFSET 1 0 0
            }
          }
          JOINT rightEye
          {
            OFFSET -3.6576 8.04674 8.04672
            CHANNELS 3 Zrotation Xrotation Yrotation
            End Site
            {
              OFFSET 1 0 0
            }
          }
        }
      }
      JOINT rCollar
      {
        OFFSET -2.68224 19.2634 -4.8768
        CHANNELS 3 Zrotation Xrotation Yrotation
        JOINT rShldr
        {
          OFFSET -8.77824 -1.95073 1.46304
          CHANNELS 3 Zrotation Xrotation Yrotation
          JOINT rForeArm
          {
            OFFSET -28.1742 -1.7115 0.48768
            CHANNELS 3 Zrotation Xrotation Yrotation
            JOINT rHand
            {
              OFFSET -22.5879 0.773209 7.07136
              CHANNELS 3 Zrotation Xrotation Yrotation
              JOINT rThumb1
              {
                OFFSET -1.2192 -0.487915 3.41376
                CHANNELS 3 Zrotation Xrotation Yrotation
                JOINT rThumb2
                {
                  OFFSET -3.37035 -0.52449 3.41376
                  CHANNELS 3 Zrotation Xrotation Yrotation
                  End Site
                  {
                    OFFSET -1.78271 -1.18214 1.43049
                  }
                }
              }
              JOINT rIndex1
              {
                OFFSET -7.75947 0.938293 5.60832
                CHANNELS 3 Zrotation Xrotation Yrotation
                JOINT rIndex2
                {
                  OFFSET -2.54057 -0.884171 1.56538
                  CHANNELS 3 Zrotation Xrotation Yrotation
                  End Site
                  {
                    OFFSET -1.62519 -0.234802 1.16502
                  }
                }
              }
              JOINT rMid1
              {
                OFFSET -8.24714 1.18213 3.41376
                CHANNELS 3 Zrotation Xrotation Yrotation
                JOINT rMid2
                {
                  OFFSET -3.10165 -0.590103 1.0647
                  CHANNELS 3 Zrotation Xrotation Yrotation
                  End Site
                  {
                    OFFSET -2.48547 -0.328903 0.83742
                  }
                }
              }
              JOINT rRing1
              {
                OFFSET -8.82822 0.546677 1.51678
                CHANNELS 3 Zrotation Xrotation Yrotation
                JOINT rRing2
                {
                  OFFSET -2.60934 -0.819778 -0.0198488
                  CHANNELS 3 Zrotation Xrotation Yrotation
                  End Site
                  {
                    OFFSET -2.33842 -0.294052 0.168128
                  }
                }
              }
              JOINT rPinky1
              {
                OFFSET -8.27202 -0.0477905 -0.4584
                CHANNELS 3 Zrotation Xrotation Yrotation
                JOINT rPinky2
                {
                  OFFSET -1.82734 -0.647385 -0.700984
                  CHANNELS 3 Zrotation Xrotation Yrotation
                  End Site
                  {
                    OFFSET -1.69225 -0.51767 -0.607171
                  }
                }
              }
            }
          }
        }
      }
      JOINT lCollar
      {
        OFFSET 2.68224 19.2634 -4.8768
        CHANNELS 3 Zrotation Xrotation Yrotation
        JOINT lShldr
        {
          OFFSET 8.77824 -1.95073 1.46304
          CHANNELS 3 Zrotation Xrotation Yrotation
          JOINT lForeArm
          {
            OFFSET 28.1742 -1.7115 0.48768
            CHANNELS 3 Zrotation Xrotation Yrotation
            JOINT lHand
            {
              OFFSET 22.5879 0.773209 7.07136
              CHANNELS 3 Zrotation Xrotation Yrotation
              JOINT lThumb1
              {
                OFFSET 1.2192 -0.487915 3.41376
                CHANNELS 3 Zrotation Xrotation Yrotation
                JOINT lThumb2
                {
                  OFFSET 3.37035 -0.52449 3.41376
                  CHANNELS 3 Zrotation Xrotation Yrotation
                  End Site
                  {
                    OFFSET 1.78271 -1.18214 1.43049
                  }
                }
              }
              JOINT lIndex1
              {
                OFFSET 7.75947 0.938293 5.60832
                CHANNELS 3 Zrotation Xrotation Yrotation
                JOINT lIndex2
                {
                  OFFSET 2.54057 -0.884171 1.56538
                  CHANNELS 3 Zrotation Xrotation Yrotation
                  End Site
                  {
                    OFFSET 1.62519 -0.234802 1.16502
                  }
                }
              }
              JOINT lMid1
              {
                OFFSET 8.24714 1.18213 3.41376
                CHANNELS 3 Zrotation Xrotation Yrotation
                JOINT lMid2
                {
                  OFFSET 3.10165 -0.590103 1.0647
                  CHANNELS 3 Zrotation Xrotation Yrotation
                  End Site
                  {
                    OFFSET 2.48547 -0.328903 0.83742
                  }
                }
              }
              JOINT lRing1
              {
                OFFSET 8.82822 0.546677 1.51678
                CHANNELS 3 Zrotation Xrotation Yrotation
                JOINT lRing2
                {
                  OFFSET 2.60934 -0.819778 -0.0198488
                  CHANNELS 3 Zrotation Xrotation Yrotation
                  End Site
                  {
                    OFFSET 2.33842 -0.294052 0.168128
                  }
                }
              }
              JOINT lPinky1
              {
                OFFSET 8.27202 -0.0477905 -0.4584
                CHANNELS 3 Zrotation Xrotation Yrotation
                JOINT lPinky2
                {
                  OFFSET 1.82734 -0.647385 -0.700984
                  CHANNELS 3 Zrotation Xrotation Yrotation
                  End Site
                  {
                    OFFSET 1.69225 -0.51767 -0.607171
                  }
                }
              }
            }
          }
        }
      }
    }
  }
  JOINT rButtock
  {
    OFFSET -8.77824 4.35084 1.2192
    CHANNELS 3 Zrotation Xrotation Yrotation
    JOINT rThigh
    {
      OFFSET 0 -1.70687 -2.19456
      CHANNELS 3 Zrotation Xrotation Yrotation
      JOINT rShin
      {
        OFFSET 0 -36.8199 0.73152
        CHANNELS 3 Zrotation Xrotation Yrotation
        JOINT rFoot
        {
          OFFSET 0.73152 -45.1104 -5.12064
          CHANNELS 3 Zrotation Xrotation Yrotation
          End Site
          {
            OFFSET -1.1221 -3.69964 12.103
          }
        }
      }
    }
  }
  JOINT lButtock
  {
    OFFSET 8.77824 4.35084 1.2192
    CHANNELS 3 Zrotation Xrotation Yrotation
    JOINT lThigh
    {
      OFFSET 0 -1.70687 -2.19456
      CHANNELS 3 Zrotation Xrotation Yrotation
      JOINT lShin
      {
        OFFSET 0 -36.8199 0.73152
        CHANNELS 3 Zrotation Xrotation Yrotation
        JOINT lFoot
        {
          OFFSET -0.73152 -45.1104 -5.12064
          CHANNELS 3 Zrotation Xrotation Yrotation
          End Site
          {
            OFFSET 1.1221 -3.69964 12.103
          }
        }
      }
    }
  }
}
MOTION
Frames:	5
Frame Time:	0.03333
0.0 0.0 0.0 0.0 0.0 0.0 0.0 0.0 0.0 0.0 0.0 0.0 0.0 0.0 0.0 0.0 0.0 0.0 0.0 0.0 0.0 0.0 0.0 0.0 0.0 0.0 0.0 0.0 0.0 0.0 0.0 0.0 0.0 0.0 0.0 0.0 0.0 0.0 0.0 0.0 0.0 0.0 0.0 0.0 0.0 0.0 0.0 0.0 0.0 0.0 0.0 0.0 0.0 0.0 0.0 0.0 0.0 0.0 0.0 0.0 0.0 0.0 0.0 0.0 0.0 0.0 0.0 0.0 0.0 0.0 0.0 0.0 0.0 0.0 0.0 0.0 0.0 0.0 0.0 0.0 0.0 0.0 0.0 0.0 0.0 0.0 0.0 0.0 0.0 0.0 0.0 0.0 0.0 0.0 0.0 0.0 0.0 0.0 0.0 0.0 0.0 0.0 0.0 0.0 0.0 0.0 0.0 0.0 0.0 0.0 0.0 0.0 0.0 0.0 0.0 0.0 0.0 0.0 0.0 0.0 0.0 0.0 0.0 0.0 0.0 0.0 0.0 0.0 0.0 0.0 0.0 0.0
0.3548 61.3911 -0.23939999999999997 5.18109 -8.077457 12.667205 16.996172 22.819517 141.757523 -11.049024 5.540446 -135.765655 -8.510935 3.447134 -10.970025 18.561035 -37.989837 -26.866085 -0.000761 0.0 -0.002361 0.000934 0.0 0.001108 -3.671117 17.552004 4.528443 -136.129675 27.067943 151.266562 109.6808 41.393178 -100.553392 -131.424614 74.181403 112.303173 -5.435006 5.264317 1.078442 -84.597501 19.683587 78.436526 -77.667245 43.030212 64.538549 -4.079531 15.563782 -0.842168 89.034659 -81.394067 59.759809 -28.260674 51.085656 23.314189 -145.120312 0.310171 -179.225576 -155.557336 1.334768 -179.396547 -156.515963 54.249906 -150.181182 -11.490042 -25.309874 -12.978637 84.731961 68.223023 -87.874803 22.485445 70.74892 -60.460814 163.933427 -28.902569 49.446826 2.932812 17.97444 -1.185791 -170.728968 -25.696253 -87.148011 168.84835 -5.317233 -98.224169 46.208878 39.652413 -36.318674 155.698345 2.446578 -110.90443 -173.126966 -66.298104 -137.618185 163.730246 -5.581694 -143.1539 145.120348 0.227614 179.197545 -10.197772 -0.139928 9.016886 135.456432 -12.621034 132.838387 84.732141 -52.088311 84.601221 -0.0 0.000692 0.000816 -58.716816 -61.568873 180.0 -78.536655 -29.62342 -76.686484 -93.288385 39.859314 -176.553075 -0.000509 -0.001177 0.000654 2.767255 -44.967021 1.956364 -51.063942 51.32027 104.421674 -49.834532 -12.37396 -31.681116
0.40449999999999997 61.0638 -0.2079 5.368579 -9.141978 13.254016 16.790146 26.115718 84.5553 -12.786474 -7.192101 -78.942737 -14.726553 14.775233 -89.221378 53.682814 11.315172 38.108627 0.003347 0.0 0.00533 -0.003166 -0.0 0.000768 -22.15286 52.541261 24.344038 43.628706 -50.614837 40.08901 -119.582037 58.512531 68.001869 120.599177 -62.840789 106.663769 -121.364403 30.329365 71.957819 -134.546381 -12.740675 70.44169 10.282838 -18.182357 -4.584973 -8.546462 27.010217 8.475131 -160.673468 -6.667573 143.246007 -168.006745 -19.064488 143.876002 0.004781 0.917518 0.290041 10.246719 0.166548 -0.047529 6.229504 18.789505 5.571985 2.155697 0.111176 -0.017292 -3.54312 -62.053023 13.038528 -170.06607 54.080764 175.012803 153.62899 7.117279 -12.327004 -134.277027 -59.658904 -118.01916 -93.028376 -51.085293 -40.500942 21.645002 -23.70853 22.293433 -60.459287 -70.524698 -15.709631 82.275266 51.988721 -68.977443 160.096746 -4.901451 -142.968728 163.282883 -4.787738 -142.965132 145.100211 -1.521371 178.648495 -12.200675 35.78124 4.946956 1.177888 -2.985033 1.094087 21.328097 -39.035512 22.165119 -0.0 -0.000113 -0.000902 -64.817944 -61.972823 112.540462 30.16794 -73.894751 132.593673 -67.220916 -79.208842 37.924403 -179.999374 75.748907 -0.0 -177.761187 27.426597 -180.0 63.008108 -43.80432 171.377324 43.265582 -20.696425 100.789824
0.2779 60.654399999999995 -0.055999999999999994 5.41673 -10.105937 13.71515 18.468472 24.925382 141.603655 -10.636637 6.008462 -134.349244 -1.194554 22.121709 170.18026 -18.220389 58.270204 157.447522 -0.000869 0.0 -0.001217 0.000698 0.0 0.002124 -9.651586 34.836267 11.198799 -106.613586 55.551495 117.930959 8.763082 -9.24893 -60.266762 157.553342 -32.861432 140.797677 -174.391705 -12.052316 89.858614 -10.612958 -48.94874 3.141336 -4.706493 7.223993 2.855147 -162.162903 -13.345127 110.096088 -36.036946 51.722543 29.833338 -170.865379 -28.325128 144.138329 -72.351723 72.973171 90.218965 -159.82461 -1.689452 176.466575 12.986872 44.344426 10.763484 -95.102643 -51.683669 -93.659323 -3.277265 -26.84818 5.257676 170.916837 1.486725 167.000836 140.847459 -1.333557 39.294686 -11.652595 -25.380455 -5.789985 0.44141 0.435282 -0.070521 136.830611 -39.341606 -118.353467 13.871383 18.814921 -9.290916 -176.975487 -37.458817 -105.299771 -13.808494 -42.12235 2.981455 168.899951 -21.666587 -144.266235 0.02101 -1.726075 0.542301 78.162607 78.783624 -91.718049 -12.751471 43.415048 -10.612549 11.377932 -26.549491 12.075855 -0.008836 0.001384 -0.008836 -65.25285 -61.706176 -62.911374 41.452326 73.340219 46.382224 -102.886421 -56.827409 165.516123 0.006197 -0.000503 0.003098 3.480599 -46.784174 -0.0 -64.089067 39.387267 -9.239838 -174.721451 1.023039 -105.299482
-0.06470000000000001 60.268 0.2811 5.626015 -10.970944 13.885561 17.368115 27.543454 89.617598 -13.294243 -5.307696 -82.636109 -0.822322 21.888635 166.879071 -22.246269 56.834113 162.888512 0.000593 -0.0 -0.000293 -0.004289 0.0 -0.001634 4.223429 -44.025548 -8.501389 25.905329 2.092737 9.534608 -81.218971 49.690698 64.296347 24.030064 -39.45928 17.643043 -171.706353 -9.388295 89.948953 -109.20879 13.76161 48.318594 -6.817418 10.181234 4.247599 -66.385656 48.38174 50.18713 -0.339943 0.981868 0.189568 -166.219853 -13.92587 144.077391 -72.351509 72.974163 90.218436 5.70722 14.972929 -2.568616 44.720068 86.378641 -5.354004 -148.350359 11.301613 -142.534485 2.746462 13.830291 -3.439152 -22.249815 13.981555 12.311997 6.391996 -11.060642 -122.439031 3.909889 20.59453 -1.20198 -88.928188 -50.830813 -37.600066 52.604944 26.949634 -12.610226 108.428122 34.160609 -91.7424 179.219508 -35.552982 -113.472784 125.642441 49.839648 -115.274255 163.383179 -5.636833 -143.169944 -0.005268 1.771419 -0.556262 156.531756 -21.318839 -174.351018 152.873858 39.991883 148.059499 161.441038 52.63737 146.997636 0.02014 -0.000269 0.015105 -73.245036 -61.185242 14.882116 91.748507 -1.077465 93.593636 -90.737416 37.679278 -172.309246 -179.997896 75.749914 -0.001077 -176.853728 26.222135 180.0 76.024022 -49.641295 91.124352 77.872092 37.513885 148.428815
